<?xml version="1.0" encoding="UTF-8" standalone="no"?>
<!DOCTYPE svg PUBLIC "-//W3C//DTD SVG 1.1//EN" "http://www.w3.org/Graphics/SVG/1.1/DTD/svg11.dtd">
<svg version="1.1" xmlns="http://www.w3.org/2000/svg" xmlns:xlink="http://www.w3.org/1999/xlink" preserveAspectRatio="xMidYMid meet" viewBox="151.22425845456266 37.67726242206663 199.99999999999997 200" width="200" height="200"><defs><path d="M151.22 37.68L351.22 37.68L351.22 237.68L151.22 237.68L151.22 37.68Z" id="ghp4ViX4f"></path><path d="M295.81 102.65C295.81 127.47 275.83 147.62 251.22 147.62C226.62 147.62 206.64 127.47 206.64 102.65C206.64 77.83 226.62 57.68 251.22 57.68C275.83 57.68 295.81 77.83 295.81 102.65Z" id="au3MEANA0"></path><path d="" id="d2nrTLTRg"></path><path d="M295.81 142.99C309.48 145.12 317.89 159.67 317.89 172.71C317.89 197.53 288.02 217.68 251.22 217.68C214.43 217.68 184.56 197.53 184.56 172.71C184.56 160.17 194.86 145.28 206.64 142.99C218.18 140.76 231.02 153.54 249.23 153.54C266.71 153.54 283.44 141.07 295.81 142.99Z" id="a1ihOFGEO8"></path></defs><g><g><g><use xlink:href="#ghp4ViX4f" opacity="1" fill="#cbcbcb" fill-opacity="1"></use></g><g><g><use xlink:href="#au3MEANA0" opacity="1" fill="#868686" fill-opacity="1"></use></g><g><use xlink:href="#d2nrTLTRg" opacity="1" fill="#868686" fill-opacity="1"></use><g><use xlink:href="#d2nrTLTRg" opacity="1" fill-opacity="0" stroke="#000000" stroke-width="1" stroke-opacity="1"></use></g></g><g><use xlink:href="#a1ihOFGEO8" opacity="1" fill="#868686" fill-opacity="1"></use></g></g></g></g></svg>