<svg id="Layer_1" data-name="Layer 1" xmlns="http://www.w3.org/2000/svg" viewBox="0 0 425.2 340.16"><defs><style>.cls-1{fill:#fff;}</style></defs><title>ARC 2_logo</title><path class="cls-1" d="M383.17,122.25a5.68,5.68,0,1,1,1.27,9l-5.27,5.27v63.24h-4.05V134.82l6.7-6.71A5.68,5.68,0,0,1,383.17,122.25Z"/><path class="cls-1" d="M358.63,109.82a5.68,5.68,0,1,0-2.62,3.12l8,8v78.79h4.05V119.27Z"/><path class="cls-1" d="M139,124.67l-47.17-14-.25-.07h0l-.25.07-47,13.95-.15,0,0,.16a105.18,105.18,0,0,0,11.43,64.64c.36.67.73,1.34,1.1,2V159.28L64.91,151a7.62,7.62,0,1,1,2.86,2.87L60.69,161V198.1a102.66,102.66,0,0,0,9,11.6V178.59l20-20V139.63a7.62,7.62,0,0,1,1.87-15h.16a7.62,7.62,0,0,1,2,15v20.6l-2.19,2.19L73.7,180.27V214a74.31,74.31,0,0,0,16,12.18V202l1.87-1.87,20.7-20.69V169a7.63,7.63,0,1,1,4,0v12.12L93.74,203.64V226c12.86-7.19,25.38-20.65,33.82-36.49A105.11,105.11,0,0,0,139,124.83Z"/><path class="cls-1" d="M149.61,123.44l-1.12-7.7L95.16,99.92l-3.63-1-3.61,1-45.86,13.6-7.47,2.23-1.09,7.71a114.4,114.4,0,0,0,12.43,70.32c9.74,18.27,24.69,33.83,40,41.61L91.58,238l5.28-2.45.34-.17c15.29-7.77,30.24-23.32,40-41.6A114.52,114.52,0,0,0,149.61,123.44ZM132.89,191.5C123.59,208.93,109.43,223.72,95,231l-3.46,1.61-3.33-1.53-.12-.06c-14.44-7.34-28.61-22.13-37.9-39.56a109.52,109.52,0,0,1-11.9-67.35l.65-4.62,4.48-1.33,45.83-13.6,2.26-.65,2.26.65,50.32,14.92.67,4.61A109.72,109.72,0,0,1,132.89,191.5Z"/><path class="cls-1" d="M168.12,225a5.81,5.81,0,0,1-2-.35,4.62,4.62,0,0,1-1.61-1,4.26,4.26,0,0,1-1.06-1.51,5,5,0,0,1,0-3.84,4.35,4.35,0,0,1,1.06-1.51,4.75,4.75,0,0,1,1.64-1,6.43,6.43,0,0,1,4.48.11,4.4,4.4,0,0,1,1.75,1.3l-2,1.73a3.2,3.2,0,0,0-.93-.75,2.46,2.46,0,0,0-1.12-.25,2.63,2.63,0,0,0-.91.15,1.94,1.94,0,0,0-1.14,1.17,2.82,2.82,0,0,0-.16.95,2.75,2.75,0,0,0,.16.93,2,2,0,0,0,.44.72,1.94,1.94,0,0,0,.69.46,2.28,2.28,0,0,0,.89.17,3,3,0,0,0,1-.18,4.1,4.1,0,0,0,1.05-.6l1.72,2.1a6.73,6.73,0,0,1-1.9.86A7.62,7.62,0,0,1,168.12,225Zm1.3-1.55V220h2.67v3.85Z"/><path class="cls-1" d="M173.14,224.81v-9.1h4.49a6.1,6.1,0,0,1,2.67.55,4.21,4.21,0,0,1,1.81,1.57,4.85,4.85,0,0,1,0,4.85,4.17,4.17,0,0,1-1.81,1.58,6.1,6.1,0,0,1-2.67.55Zm3.07-2.39h1.29a2.38,2.38,0,0,0,1.13-.25,1.73,1.73,0,0,0,.76-.73,2.33,2.33,0,0,0,.28-1.19,2.25,2.25,0,0,0-.28-1.17,1.73,1.73,0,0,0-.76-.73,2.38,2.38,0,0,0-1.13-.25h-1.29Z"/><path class="cls-1" d="M183.62,224.81v-9.1H188a5.3,5.3,0,0,1,2.2.42,3.36,3.36,0,0,1,1.44,4.83,3.33,3.33,0,0,1-1.44,1.19,5.3,5.3,0,0,1-2.2.42h-2.68l1.37-1.31v3.55Zm3.07-3.21-1.37-1.39h2.49a1.36,1.36,0,0,0,.94-.29,1.16,1.16,0,0,0,0-1.56,1.35,1.35,0,0,0-.94-.28h-2.49l1.37-1.39Z"/><path class="cls-1" d="M192.89,224.81v-9.1h4.38a5.3,5.3,0,0,1,2.2.42,3.36,3.36,0,0,1,1.44,4.83,3.28,3.28,0,0,1-1.44,1.16,5.47,5.47,0,0,1-2.2.4h-2.68l1.37-1.26v3.55ZM196,221.6l-1.37-1.39h2.48a1.37,1.37,0,0,0,1-.29,1.16,1.16,0,0,0,0-1.56,1.37,1.37,0,0,0-1-.28h-2.48l1.37-1.39Zm2.38,3.21-2.24-3.31h3.25l2.26,3.31Z"/><path class="cls-1" d="M204.74,224.81l4.16-9.1h.95l4.16,9.1h-1l-3.82-8.54h.39l-3.82,8.54Zm1.64-2.43.29-.78H212l.29.78Z"/><path class="cls-1" d="M216.86,224.81l-3.07-9.1h1l2.87,8.57h-.49l3-8.57H221l2.92,8.57h-.47l2.9-8.57h.93l-3.07,9.1h-1l-2.79-8.12h.26l-2.81,8.12Z"/><path class="cls-1" d="M227.05,224.81l4.16-9.1h.95l4.16,9.1h-1l-3.82-8.54h.39l-3.83,8.54Zm1.64-2.43.29-.78h5.29l.28.78Z"/><path class="cls-1" d="M237.57,224.81v-9.1H241a4.76,4.76,0,0,1,2,.37,2.85,2.85,0,0,1,1.29,1.07,3.39,3.39,0,0,1,0,3.34,2.83,2.83,0,0,1-1.29,1.06,4.76,4.76,0,0,1-2,.37H238.1l.43-.44v3.33Zm1-3.25-.43-.45H241a3.12,3.12,0,0,0,2.07-.6,2.35,2.35,0,0,0,0-3.37,3.12,3.12,0,0,0-2.07-.6H238.1l.43-.45Zm5.25,3.25-2.34-3.3h1l2.36,3.3Z"/><path class="cls-1" d="M247.67,224h5.47v.83h-6.43v-9.1H253v.83h-5.28Zm-.1-4.2h4.81v.82h-4.81Z"/><path class="cls-1" d="M255.14,224.81v-9.1h.8l6.28,7.9h-.42v-7.9h.95v9.1H262l-6.27-7.9h.42v7.9Z"/><path class="cls-1" d="M266.42,224h5.47v.83h-6.44v-9.1h6.24v.83h-5.27Zm-.11-4.2h4.81v.82h-4.81Z"/><path class="cls-1" d="M276.4,224.89a5.73,5.73,0,0,1-1.94-.33,3.82,3.82,0,0,1-1.44-.85l.38-.75a3.68,3.68,0,0,0,1.29.79,4.68,4.68,0,0,0,1.71.32,3.93,3.93,0,0,0,1.4-.21,1.76,1.76,0,0,0,.79-.58,1.39,1.39,0,0,0,.25-.81,1.23,1.23,0,0,0-.3-.86,2.16,2.16,0,0,0-.8-.51,7.38,7.38,0,0,0-1.09-.33l-1.2-.31a5.36,5.36,0,0,1-1.1-.43,2.35,2.35,0,0,1-.8-.73,2,2,0,0,1-.31-1.17,2.25,2.25,0,0,1,.36-1.24,2.46,2.46,0,0,1,1.1-.91,4.46,4.46,0,0,1,1.89-.35,5.34,5.34,0,0,1,1.53.22,4.44,4.44,0,0,1,1.3.59l-.33.77a4.52,4.52,0,0,0-1.24-.58,4.8,4.8,0,0,0-1.27-.18,3.74,3.74,0,0,0-1.35.22,1.77,1.77,0,0,0-.79.59,1.46,1.46,0,0,0-.25.84,1.18,1.18,0,0,0,.31.86,2,2,0,0,0,.8.51,9,9,0,0,0,1.1.32l1.19.31a5.91,5.91,0,0,1,1.09.44,2.32,2.32,0,0,1,.81.71,2,2,0,0,1,.3,1.16,2.2,2.2,0,0,1-.36,1.22,2.49,2.49,0,0,1-1.11.91A4.61,4.61,0,0,1,276.4,224.89Z"/><path class="cls-1" d="M284.13,224.89a5.77,5.77,0,0,1-1.94-.33,3.82,3.82,0,0,1-1.44-.85l.38-.75a3.68,3.68,0,0,0,1.29.79,4.76,4.76,0,0,0,1.71.32,3.89,3.89,0,0,0,1.4-.21,1.79,1.79,0,0,0,.8-.58,1.46,1.46,0,0,0,.25-.81,1.2,1.2,0,0,0-.31-.86,2.08,2.08,0,0,0-.8-.51,7.38,7.38,0,0,0-1.09-.33l-1.19-.31a5.14,5.14,0,0,1-1.1-.43,2.29,2.29,0,0,1-.81-.73,2.05,2.05,0,0,1-.3-1.17,2.24,2.24,0,0,1,.35-1.24,2.52,2.52,0,0,1,1.1-.91,4.54,4.54,0,0,1,1.9-.35,5.27,5.27,0,0,1,1.52.22,4.32,4.32,0,0,1,1.3.59l-.32.77a4.58,4.58,0,0,0-1.25-.58,4.73,4.73,0,0,0-1.26-.18,3.76,3.76,0,0,0-1.36.22,1.79,1.79,0,0,0-.78.59,1.46,1.46,0,0,0-.26.84,1.22,1.22,0,0,0,.31.86,1.94,1.94,0,0,0,.81.51,9.41,9.41,0,0,0,1.09.32l1.19.31a6,6,0,0,1,1.1.44,2.2,2.2,0,0,1,.8.71,1.94,1.94,0,0,1,.31,1.16,2.14,2.14,0,0,1-.37,1.22,2.49,2.49,0,0,1-1.11.91A4.61,4.61,0,0,1,284.13,224.89Z"/><path class="cls-1" d="M292.51,224.81v-9.1h3.4a4.81,4.81,0,0,1,2,.37,2.83,2.83,0,0,1,1.28,1.07,3.32,3.32,0,0,1,0,3.34,2.81,2.81,0,0,1-1.28,1.06,4.81,4.81,0,0,1-2,.37H293l.43-.44v3.33Zm1-3.25-.43-.45h2.85a3.12,3.12,0,0,0,2.07-.6,2.35,2.35,0,0,0,0-3.37,3.12,3.12,0,0,0-2.07-.6H293l.43-.45Zm5.25,3.25-2.34-3.3h1l2.35,3.3Z"/><path class="cls-1" d="M300.19,224.81l4.16-9.1h.95l4.16,9.1h-1l-3.82-8.54H305l-3.82,8.54Zm1.64-2.43.28-.78h5.29l.29.78Z"/><path class="cls-1" d="M310.71,224.81v-9.1h1v9.1Z"/><path class="cls-1" d="M316.88,224.89a5.77,5.77,0,0,1-1.94-.33,3.82,3.82,0,0,1-1.44-.85l.38-.75a3.68,3.68,0,0,0,1.29.79,4.68,4.68,0,0,0,1.71.32,3.93,3.93,0,0,0,1.4-.21,1.76,1.76,0,0,0,.79-.58,1.39,1.39,0,0,0,.25-.81,1.23,1.23,0,0,0-.3-.86,2.08,2.08,0,0,0-.8-.51,7.38,7.38,0,0,0-1.09-.33l-1.2-.31a5.36,5.36,0,0,1-1.1-.43,2.35,2.35,0,0,1-.8-.73,2,2,0,0,1-.31-1.17,2.25,2.25,0,0,1,.36-1.24,2.46,2.46,0,0,1,1.1-.91,4.48,4.48,0,0,1,1.9-.35,5.32,5.32,0,0,1,1.52.22,4.44,4.44,0,0,1,1.3.59l-.33.77a4.52,4.52,0,0,0-1.24-.58,4.8,4.8,0,0,0-1.27-.18,3.74,3.74,0,0,0-1.35.22,1.83,1.83,0,0,0-.79.59,1.53,1.53,0,0,0-.25.84,1.18,1.18,0,0,0,.31.86,2,2,0,0,0,.8.51,9.6,9.6,0,0,0,1.1.32l1.19.31a5.64,5.64,0,0,1,1.09.44,2.23,2.23,0,0,1,.81.71,2,2,0,0,1,.3,1.16,2.2,2.2,0,0,1-.36,1.22,2.49,2.49,0,0,1-1.11.91A4.61,4.61,0,0,1,316.88,224.89Z"/><path class="cls-1" d="M322.11,224.81v-9.1h1v9.1Z"/><path class="cls-1" d="M325.77,224.81v-9.1h.8l6.27,7.9h-.41v-7.9h.95v9.1h-.8l-6.26-7.9h.41v7.9Z"/><path class="cls-1" d="M340.07,224.89a5.24,5.24,0,0,1-1.92-.35,4.68,4.68,0,0,1-1.52-1,4.51,4.51,0,0,1-1-1.47,4.93,4.93,0,0,1,0-3.7,4.39,4.39,0,0,1,1-1.46,4.49,4.49,0,0,1,1.53-1,5.17,5.17,0,0,1,1.92-.35,5.3,5.3,0,0,1,1.9.33,3.65,3.65,0,0,1,1.48,1l-.6.61a3.3,3.3,0,0,0-1.26-.82,4.28,4.28,0,0,0-1.49-.25,4.11,4.11,0,0,0-1.55.28,3.76,3.76,0,0,0-1.23.79,3.52,3.52,0,0,0-.82,1.2,3.65,3.65,0,0,0-.3,1.5,3.72,3.72,0,0,0,.3,1.5,3.52,3.52,0,0,0,.82,1.2,3.76,3.76,0,0,0,1.23.79,4.09,4.09,0,0,0,1.54.28,4.82,4.82,0,0,0,1.48-.23,3.43,3.43,0,0,0,1.28-.8l.54.73a4.47,4.47,0,0,1-1.52.87A5.83,5.83,0,0,1,340.07,224.89Zm2.42-1.28v-3.35h.92v3.47Z"/><path class="cls-1" d="M168.1,241.14a5.1,5.1,0,0,1-1.9-.35,4.5,4.5,0,0,1-1.51-1,4.43,4.43,0,0,1-1-1.47,4.61,4.61,0,0,1-.36-1.84,4.69,4.69,0,0,1,.36-1.85,4.51,4.51,0,0,1,1-1.47,4.83,4.83,0,0,1,1.51-1,5.34,5.34,0,0,1,1.9-.34,5.2,5.2,0,0,1,1.86.33,3.67,3.67,0,0,1,1.47,1l-.61.61a3.43,3.43,0,0,0-1.24-.83,4.05,4.05,0,0,0-1.45-.25,4,4,0,0,0-1.52.28,3.61,3.61,0,0,0-1.23.79,3.72,3.72,0,0,0-1.1,2.7,3.89,3.89,0,0,0,.29,1.5,4.09,4.09,0,0,0,.81,1.2,3.76,3.76,0,0,0,1.23.79,4,4,0,0,0,1.52.28,4.06,4.06,0,0,0,1.45-.26,3.43,3.43,0,0,0,1.24-.83l.61.61a3.88,3.88,0,0,1-1.47,1A5.26,5.26,0,0,1,168.1,241.14Z"/><path class="cls-1" d="M173.88,241.06,178,232h1l4.16,9.1h-1l-3.82-8.54h.39l-3.83,8.54Zm1.64-2.43.29-.78h5.29l.28.78Z"/><path class="cls-1" d="M186.74,241.06V232h.79l4.16,7.1h-.41l4.12-7.1h.79v9.1h-.92V233.4h.22l-3.8,6.5h-.45l-3.82-6.5h.24v7.66Z"/><path class="cls-1" d="M201.23,241.06V232h3.41a4.81,4.81,0,0,1,2,.37,2.88,2.88,0,0,1,1.28,1.07,3.32,3.32,0,0,1,0,3.34,2.94,2.94,0,0,1-1.28,1.07,4.81,4.81,0,0,1-2,.38h-2.87l.43-.46v3.33Zm1-3.25-.43-.47h2.84a3.2,3.2,0,0,0,2.08-.59,2.07,2.07,0,0,0,.71-1.67,2.1,2.1,0,0,0-.71-1.69,3.15,3.15,0,0,0-2.08-.6h-2.84l.43-.45Z"/><path class="cls-1" d="M210.61,241.06l4.16-9.1h.95l4.16,9.1h-1L215,232.52h.39l-3.82,8.54Zm1.64-2.43.28-.78h5.29l.29.78Z"/><path class="cls-1" d="M223.47,241.06V232h1v9.1Z"/><path class="cls-1" d="M233.46,241.14a5.24,5.24,0,0,1-1.92-.35,4.54,4.54,0,0,1-1.52-1,4.31,4.31,0,0,1-1-1.47,4.61,4.61,0,0,1-.36-1.84,4.69,4.69,0,0,1,.36-1.85,4.54,4.54,0,0,1,1-1.47,4.81,4.81,0,0,1,1.53-1,5.61,5.61,0,0,1,3.82,0,3.63,3.63,0,0,1,1.47,1l-.59.61A3.39,3.39,0,0,0,235,233a4.28,4.28,0,0,0-1.49-.25A4.11,4.11,0,0,0,232,233a3.75,3.75,0,0,0-1.24.79,3.54,3.54,0,0,0-.81,1.2,3.84,3.84,0,0,0,.81,4.2A3.92,3.92,0,0,0,232,240a4.09,4.09,0,0,0,1.54.28,4.82,4.82,0,0,0,1.48-.23,3.57,3.57,0,0,0,1.28-.8l.54.73a4.29,4.29,0,0,1-1.52.86A5.56,5.56,0,0,1,233.46,241.14Zm2.42-1.28v-3.35h.92V240Z"/><path class="cls-1" d="M241.6,241.06V232h.79l6.28,7.9h-.41V232h.94v9.1h-.79l-6.26-7.91h.41v7.91Z"/><path class="cls-1" d="M262.06,241.06H259V232h7.4v2.31h-4.33Zm-.21-5.23h4v2.32h-4Z"/><path class="cls-1" d="M274.15,241.27a5.92,5.92,0,0,1-2-.35,4.9,4.9,0,0,1-1.63-1,4.82,4.82,0,0,1-1.07-5.32,4.68,4.68,0,0,1,1.07-1.5,4.9,4.9,0,0,1,1.63-1,6.21,6.21,0,0,1,4.11,0,5,5,0,0,1,1.62,1,4.53,4.53,0,0,1,1.07,1.5,4.85,4.85,0,0,1,0,3.81,4.47,4.47,0,0,1-1.07,1.51,5,5,0,0,1-1.62,1A5.94,5.94,0,0,1,274.15,241.27Zm0-2.49a1.92,1.92,0,0,0,1.45-.6,2.08,2.08,0,0,0,.44-.72,2.83,2.83,0,0,0,.15-1,2.89,2.89,0,0,0-.15-1,2,2,0,0,0-.44-.71,1.81,1.81,0,0,0-.65-.45,2.11,2.11,0,0,0-.8-.16,2.15,2.15,0,0,0-.8.16,1.81,1.81,0,0,0-.65.45,1.88,1.88,0,0,0-.43.71,2.65,2.65,0,0,0-.16,1,2.59,2.59,0,0,0,.16,1,1.92,1.92,0,0,0,.43.72,2.1,2.1,0,0,0,.65.45A2.15,2.15,0,0,0,274.15,238.78Z"/><path class="cls-1" d="M282.48,241.06V232h4.39a5.33,5.33,0,0,1,2.2.42,3.25,3.25,0,0,1,1.44,1.18,3.34,3.34,0,0,1,.5,1.83,3.06,3.06,0,0,1-1.94,3,5.5,5.5,0,0,1-2.2.4h-2.68l1.36-1.26v3.55Zm3.07-3.21-1.36-1.39h2.48a1.34,1.34,0,0,0,.94-.29,1.14,1.14,0,0,0,0-1.56,1.34,1.34,0,0,0-.94-.29h-2.48l1.36-1.39Zm2.38,3.21-2.23-3.32H289l2.26,3.32Z"/><path class="cls-1" d="M303.13,241.27a9.42,9.42,0,0,1-2.21-.26,6.47,6.47,0,0,1-1.76-.68l1-2.24a5.91,5.91,0,0,0,1.45.61,5.71,5.71,0,0,0,1.55.23,3.18,3.18,0,0,0,.7-.06.85.85,0,0,0,.37-.17.34.34,0,0,0,.12-.27.44.44,0,0,0-.28-.39,3.35,3.35,0,0,0-.72-.24l-1-.21a9,9,0,0,1-1.07-.29,4.13,4.13,0,0,1-1-.48,2.19,2.19,0,0,1-.72-.79,2.46,2.46,0,0,1-.28-1.21,2.65,2.65,0,0,1,.48-1.54,3.17,3.17,0,0,1,1.42-1.11,5.76,5.76,0,0,1,2.34-.42,8.46,8.46,0,0,1,1.82.2,6.1,6.1,0,0,1,1.62.59l-.93,2.23a6.46,6.46,0,0,0-1.3-.51,4.86,4.86,0,0,0-1.23-.17,2.54,2.54,0,0,0-.7.08.76.76,0,0,0-.38.21.43.43,0,0,0-.11.28.4.4,0,0,0,.28.37,2.91,2.91,0,0,0,.72.23l1,.2a8.44,8.44,0,0,1,1.07.28,4.25,4.25,0,0,1,1,.48,2.25,2.25,0,0,1,.72.78,2.42,2.42,0,0,1,.28,1.2,2.66,2.66,0,0,1-.48,1.53,3.34,3.34,0,0,1-1.41,1.11A5.58,5.58,0,0,1,303.13,241.27Z"/><path class="cls-1" d="M310.36,241.06V232h2.52l3.64,5.94h-1.33l3.54-5.94h2.52l0,9.1h-2.8l0-4.89h.45l-2.42,4.07h-1.35l-2.53-4.07h.55v4.89Z"/><path class="cls-1" d="M327.85,238.74h4.55v2.32h-7.56V232h7.39v2.31h-4.38Zm-.2-3.4h4.05v2.21h-4.05Z"/><path class="cls-1" d="M338.36,241.19a8.34,8.34,0,0,1-1.8-.2,5.5,5.5,0,0,1-1.43-.5l.81-1.94a4.34,4.34,0,0,0,1.18.47,5.4,5.4,0,0,0,1.3.17,1.87,1.87,0,0,0,.72-.09.28.28,0,0,0,.19-.25c0-.11-.07-.18-.22-.23a3.16,3.16,0,0,0-.58-.11l-.8-.1a6.83,6.83,0,0,1-.88-.17,3.1,3.1,0,0,1-.81-.35,1.85,1.85,0,0,1-.58-.63,2,2,0,0,1-.22-1,1.93,1.93,0,0,1,.41-1.22,2.74,2.74,0,0,1,1.22-.88,5.35,5.35,0,0,1,2-.33,9.14,9.14,0,0,1,1.56.14,4.79,4.79,0,0,1,1.34.44l-.81,1.94a3.73,3.73,0,0,0-1.07-.41,5.07,5.07,0,0,0-1-.11,1.84,1.84,0,0,0-.76.1c-.14.07-.2.15-.2.24s.07.18.22.23a2.9,2.9,0,0,0,.58.12l.8.1a6.72,6.72,0,0,1,.87.18,2.76,2.76,0,0,1,.8.36,1.71,1.71,0,0,1,.59.63,2.11,2.11,0,0,1,.22,1,2,2,0,0,1-.41,1.19,2.64,2.64,0,0,1-1.22.89A5.5,5.5,0,0,1,338.36,241.19Z"/><path class="cls-1" d="M314.53,201.07a39.85,39.85,0,0,1-13.88-2.36,32.69,32.69,0,0,1-11-6.73,30.82,30.82,0,0,1-9.22-16.72l-.11-.58-.38.44a22.06,22.06,0,0,1-6.7,5.19l-.28.15L286,199.64h-9.52L263,179.5a3.32,3.32,0,0,0,.24-3.65l-.11-.2a3.34,3.34,0,0,0-2.78-1.49,3.38,3.38,0,0,0-1.85.56,3.33,3.33,0,0,0,1.84,6.1,2.94,2.94,0,0,0,.84-.11l12.62,18.93H264l-10.67-15.83h-6.21v15.83H238V153.75a3.33,3.33,0,1,0-2.18,0v45.89h-19l-4.21-11H188.26l-4.21,11h-9.67l20-46h.26a3.33,3.33,0,0,0,3.1-4.54,3.3,3.3,0,0,0-1.78-1.83,3.21,3.21,0,0,0-1.33-.28,3.32,3.32,0,0,0-2.25,5.77L172,199.64H163.1l27.26-62.37h20.49l15.09,34.53.55-.11V137.27h30a37,37,0,0,1,15.12,2.85,22.41,22.41,0,0,1,9.82,8.12,20.15,20.15,0,0,1,1.95,3.85l.22.56.29-.52a30.63,30.63,0,0,1,5.7-7.21,32.85,32.85,0,0,1,11-6.73,40.08,40.08,0,0,1,13.88-2.36A39.27,39.27,0,0,1,330.82,139a30.35,30.35,0,0,1,7.67,4.94,29.74,29.74,0,0,1,3.89,4.12l-13,11.58a22,22,0,0,0-6-5.27,13.27,13.27,0,0,0-1.82-.88,15.74,15.74,0,0,0-5.92-1.09,16.48,16.48,0,0,0-6.13,1.09,13.18,13.18,0,0,0-4.73,3.22,14.93,14.93,0,0,0-3.07,5.09c-.16.43-.3.89-.43,1.35a20.07,20.07,0,0,0-.66,4.9v.36a19,19,0,0,0,1.1,6.62,14.89,14.89,0,0,0,3.07,5.08,12.93,12.93,0,0,0,4.73,3.22,16.44,16.44,0,0,0,6.13,1.1,15.31,15.31,0,0,0,7.74-2,22,22,0,0,0,6-5.28l5.79,5.17a25,25,0,0,1-19.71,9.49c-13.47,0-24.43-10.39-24.43-23.17,0-.39,0-.79,0-1.18.62-11.68,10.33-21.07,22.61-21.91a3.3,3.3,0,0,0,3.11,2.17,3.33,3.33,0,1,0-3.16-4.36c-13.59.88-24.45,11.69-24.77,24.68,0,0,0,.47,0,.6,0,14,11.95,25.36,26.62,25.36a27.2,27.2,0,0,0,21.34-10.22l5.56,5a31.07,31.07,0,0,1-11.56,9A38.8,38.8,0,0,1,314.53,201.07ZM193.92,174h13L200.42,157Zm53.22-5.57h8c3,0,5.26-.7,6.71-2.06a8.2,8.2,0,0,0,0-11.2c-1.45-1.36-3.71-2.06-6.71-2.06h-8Z"/></svg>